HIERARCHY
ROOT reference
{
  OFFSET -65.3212 -1.93545 -120.338
  CHANNELS 6 Xposition Yposition Zposition Zrotation Xrotation Yrotation
  JOINT Hips
  {
    OFFSET 0 78.7191 0
    CHANNELS 3 Zrotation Xrotation Yrotation
    JOINT Chest
    {
      OFFSET 0 8.7983 -4.7612
      CHANNELS 3 Zrotation Xrotation Yrotation
      JOINT Chest2
      {
        OFFSET 0 8.0291 0.4195
        CHANNELS 3 Zrotation Xrotation Yrotation
        JOINT Chest3
        {
          OFFSET 0 9.9351 -2.2114
          CHANNELS 3 Zrotation Xrotation Yrotation
          JOINT Neck
          {
            OFFSET 0 22.3885 -0.4656
            CHANNELS 3 Zrotation Xrotation Yrotation
            JOINT Head
            {
              OFFSET -0.0001 12.643 3.4389
              CHANNELS 3 Zrotation Xrotation Yrotation
              End Site
              {
                OFFSET 0.0001 17.6655 0.5274
              }
            }
          }
          JOINT LeftCollar
          {
            OFFSET 2.2603 21.606 7.4023
            CHANNELS 3 Zrotation Xrotation Yrotation
            JOINT LeftShoulder
            {
              OFFSET 13.5163 -1.1332 -5.0146
              CHANNELS 3 Zrotation Xrotation Yrotation
              JOINT LeftElbow
              {
                OFFSET -0.0995 -28.05 -0.2431
                CHANNELS 3 Zrotation Xrotation Yrotation
                JOINT LeftWrist
                {
                  OFFSET 0.0679 -23.3996 -0.1402
                  CHANNELS 3 Zrotation Xrotation Yrotation
                  JOINT LeftFinger1
                  {
                    OFFSET 0.7932 -9.069 2.5189
                    CHANNELS 3 Zrotation Xrotation Yrotation
                    JOINT LeftFinger11
                    {
                      OFFSET -0.8272 -3.3923 0.5977
                      CHANNELS 3 Zrotation Xrotation Yrotation
                      JOINT LeftFinger12
                      {
                        OFFSET -0.5649 -2.3158 0.4082
                        CHANNELS 3 Zrotation Xrotation Yrotation
                        End Site
                        {
                          OFFSET -0.4919 -1.6479 0.2673
                        }
                      }
                    }
                  }
                  JOINT LeftFinger2
                  {
                    OFFSET 0.9159 -9.2044 0.2193
                    CHANNELS 3 Zrotation Xrotation Yrotation
                    JOINT LeftFinger21
                    {
                      OFFSET 0.0117 -4.1944 -0.0248
                      CHANNELS 3 Zrotation Xrotation Yrotation
                      JOINT LeftFinger22
                      {
                        OFFSET 0.0071 -2.3249 -0.0142
                        CHANNELS 3 Zrotation Xrotation Yrotation
                        End Site
                        {
                          OFFSET -0.1475 -2.0882 0.0028
                        }
                      }
                    }
                  }
                  JOINT LeftFinger3
                  {
                    OFFSET 0.6113 -8.7231 -2.0637
                    CHANNELS 3 Zrotation Xrotation Yrotation
                    JOINT LeftFinger31
                    {
                      OFFSET -0.1927 -3.8059 -0.2383
                      CHANNELS 3 Zrotation Xrotation Yrotation
                      JOINT LeftFinger32
                      {
                        OFFSET -0.1091 -2.1688 -0.1362
                        CHANNELS 3 Zrotation Xrotation Yrotation
                        End Site
                        {
                          OFFSET -0.2358 -1.9176 -0.0906
                        }
                      }
                    }
                  }
                  JOINT LeftFinger4
                  {
                    OFFSET -0.6151 -8.0947 -3.5641
                    CHANNELS 3 Zrotation Xrotation Yrotation
                    JOINT LeftFinger41
                    {
                      OFFSET -0.4882 -2.341 -0.6462
                      CHANNELS 3 Zrotation Xrotation Yrotation
                      JOINT LeftFinger42
                      {
                        OFFSET -0.3575 -1.7167 -0.4742
                        CHANNELS 3 Zrotation Xrotation Yrotation
                        End Site
                        {
                          OFFSET -0.4187 -1.5237 -0.3496
                        }
                      }
                    }
                  }
                  JOINT LeftFinger0
                  {
                    OFFSET -1.42 -1.8761 1.4223
                    CHANNELS 3 Zrotation Xrotation Yrotation
                    JOINT LeftFinger01
                    {
                      OFFSET -1.1471 -3.4929 2.6334
                      CHANNELS 3 Zrotation Xrotation Yrotation
                      JOINT LeftFinger02
                      {
                        OFFSET -0.823 -2.3 1.6571
                        CHANNELS 3 Zrotation Xrotation Yrotation
                        End Site
                        {
                          OFFSET -0.5822 -1.6914 1.1582
                        }
                      }
                    }
                  }
                }
              }
            }
          }
          JOINT RightCollar
          {
            OFFSET -2.2603 21.606 7.4023
            CHANNELS 3 Zrotation Xrotation Yrotation
            JOINT RightShoulder
            {
              OFFSET -13.5187 -1.1334 -5.0155
              CHANNELS 3 Zrotation Xrotation Yrotation
              JOINT RightElbow
              {
                OFFSET 0.0994 -28.0499 -0.2431
                CHANNELS 3 Zrotation Xrotation Yrotation
                JOINT RightWrist
                {
                  OFFSET -0.0679 -23.3996 -0.1402
                  CHANNELS 3 Zrotation Xrotation Yrotation
                  JOINT RightFinger1
                  {
                    OFFSET -0.7932 -9.0691 2.5189
                    CHANNELS 3 Zrotation Xrotation Yrotation
                    JOINT RightFinger11
                    {
                      OFFSET 0.8272 -3.3923 0.5977
                      CHANNELS 3 Zrotation Xrotation Yrotation
                      JOINT RightFinger12
                      {
                        OFFSET 0.565 -2.3158 0.4082
                        CHANNELS 3 Zrotation Xrotation Yrotation
                        End Site
                        {
                          OFFSET 0.4919 -1.6479 0.2673
                        }
                      }
                    }
                  }
                  JOINT RightFinger2
                  {
                    OFFSET -0.916 -9.2044 0.2193
                    CHANNELS 3 Zrotation Xrotation Yrotation
                    JOINT RightFinger21
                    {
                      OFFSET -0.0117 -4.1944 -0.0248
                      CHANNELS 3 Zrotation Xrotation Yrotation
                      JOINT RightFinger22
                      {
                        OFFSET -0.0071 -2.3249 -0.0142
                        CHANNELS 3 Zrotation Xrotation Yrotation
                        End Site
                        {
                          OFFSET 0.1475 -2.0882 0.0028
                        }
                      }
                    }
                  }
                  JOINT RightFinger3
                  {
                    OFFSET -0.6113 -8.7231 -2.0637
                    CHANNELS 3 Zrotation Xrotation Yrotation
                    JOINT RightFinger31
                    {
                      OFFSET 0.1927 -3.8059 -0.2383
                      CHANNELS 3 Zrotation Xrotation Yrotation
                      JOINT RightFinger32
                      {
                        OFFSET 0.1091 -2.1688 -0.1362
                        CHANNELS 3 Zrotation Xrotation Yrotation
                        End Site
                        {
                          OFFSET 0.2358 -1.9176 -0.0906
                        }
                      }
                    }
                  }
                  JOINT RightFinger4
                  {
                    OFFSET 0.6151 -8.0947 -3.564
                    CHANNELS 3 Zrotation Xrotation Yrotation
                    JOINT RightFinger41
                    {
                      OFFSET 0.4882 -2.341 -0.6462
                      CHANNELS 3 Zrotation Xrotation Yrotation
                      JOINT RightFinger42
                      {
                        OFFSET 0.3574 -1.7166 -0.4742
                        CHANNELS 3 Zrotation Xrotation Yrotation
                        End Site
                        {
                          OFFSET 0.4187 -1.5237 -0.3496
                        }
                      }
                    }
                  }
                  JOINT RightFinger0
                  {
                    OFFSET 1.4199 -1.8761 1.4221
                    CHANNELS 3 Zrotation Xrotation Yrotation
                    JOINT RightFinger01
                    {
                      OFFSET 1.1472 -3.4929 2.6336
                      CHANNELS 3 Zrotation Xrotation Yrotation
                      JOINT RightFinger02
                      {
                        OFFSET 0.8229 -2.3 1.6571
                        CHANNELS 3 Zrotation Xrotation Yrotation
                        End Site
                        {
                          OFFSET 0.5822 -1.6914 1.1582
                        }
                      }
                    }
                  }
                }
              }
            }
          }
        }
      }
    }
    JOINT RightHip
    {
      OFFSET -9.412 3.9771 -0.7758
      CHANNELS 3 Zrotation Xrotation Yrotation
      JOINT RightKnee
      {
        OFFSET -0.7531 -40.938 0
        CHANNELS 3 Zrotation Xrotation Yrotation
        JOINT RightAnkle
        {
          OFFSET 0 -40.1986 0
          CHANNELS 3 Zrotation Xrotation Yrotation
          JOINT RightToe
          {
            OFFSET 0 -4.4182 9.239
            CHANNELS 3 Zrotation Xrotation Yrotation
            End Site
            {
              OFFSET 0 0 6.1981
            }
          }
        }
      }
    }
    JOINT LeftHip
    {
      OFFSET 9.4119 3.9773 -0.7758
      CHANNELS 3 Zrotation Xrotation Yrotation
      JOINT LeftKnee
      {
        OFFSET 0.7532 -40.9383 0
        CHANNELS 3 Zrotation Xrotation Yrotation
        JOINT LeftAnkle
        {
          OFFSET 0 -40.1986 0
          CHANNELS 3 Zrotation Xrotation Yrotation
          JOINT LeftToe
          {
            OFFSET 0 -4.4182 9.239
            CHANNELS 3 Zrotation Xrotation Yrotation
            End Site
            {
              OFFSET 0 0 6.1981
            }
          }
        }
      }
    }
  }
}
MOTION
Frames:	6
Frame Time:	0.0333333
-38.2961 -3.48356 -49.6349 0 0 -0 -0.635271 6.14508 101.884 -0.000424372 -2.15287 1.02167 0.0376429 -4.30543 2.04551 0.037641 -4.30541 2.0455 -0.570567 13.6137 -8.57512 -6.33082 -1.10015 -8.80723 0.49645 0.855985 -4.26273 4.06426 31.6631 27.2211 -10.375 -22.1194 -10.323 -12.0605 1.40879 41.7644 -3.95356e-005 0.000188934 0.000152156 0.000346628 -4.04121e-005 -0.000238236 -0.000173811 5.83588e-005 2.28372e-005 2.03447 -1.26685 0.222414 -0.167735 -0.876192 0.196075 2.03554 -1.26784 0.222665 2.14057 -6.28968 2.63719 -0.361967 -2.21293 0.750577 4.5101 -3.05778 0.715154 11.4153 -7.35223 2.60518 -0.0648882 -1.7371 1.50187 2.7887 -1.86624 0.506471 0.000254025 1.65472e-005 -0.000395741 -0.00225246 0.00535507 -0.000667584 -0.000196554 4.58474e-005 3.06508e-006 -44.4584 -1.12587 12.6009 -93.0673 9.49253 -52.0614 -3.50097 -25.848 -35.2701 5.23092 6.57281 -23.1095 -26.3168 9.86706 9.0844 39.4242 12.0338 -4.97717 38.7304 11.8651 -4.8227 -2.23351 10.2523 5.03865 52.3753 15.6205 -6.40197 44.0892 13.7161 -4.4863 15.0073 7.587 -5.70558 37.2883 13.8497 -2.53197 38.5715 14.2637 -2.7736 23.054 4.37547 -8.90255 30.7535 11.5468 -0.514486 30.6849 11.5225 -0.506236 7.91155 0.88028 52.6243 -0.671212 1.52911 0.489015 -4.02431 8.62952 3.04557 -4.1638 -16.8127 45.6073 14.7174 47.0027 -7.84209 -14.3933 -3.17483 -22.4257 25.2847 -3.25438 -8.10983 -22.7016 3.30603 -2.0267 0.441283 -0.000311867 0.617843 8.83516 -2.41805 -5.44515 5.77033 5.01456 -0.811574 
-38.1533 -3.56673 -49.8525 0 0 -0 -0.634637 6.46579 102.61 -0.0303282 -2.24438 1.0603 -0.019071 -4.48894 2.12184 -0.0190704 -4.48894 2.12186 -0.463771 13.9936 -8.88236 -6.51411 -0.939271 -9.03488 0.0519569 0.900499 -3.90765 5.10434 32.2231 27.5312 -9.61904 -21.9029 -9.9602 -12.7798 2.46989 41.7892 0.074545 -0.0998437 0.00991656 0.00109967 -0.0387764 -0.0128233 0.0897456 -0.0558582 0.00490761 2.11089 -1.31413 0.231065 -0.173455 -0.90929 0.202698 2.11191 -1.31515 0.231875 2.2141 -6.30683 2.63395 -0.366193 -2.24164 0.758813 4.56794 -3.09641 0.725869 11.4686 -7.30481 2.57861 -0.0654967 -1.76463 1.5238 2.86094 -1.90795 0.501935 -0.0718961 -0.111047 0.0218695 -0.0270964 -0.0357032 0.00770714 -0.0296233 -0.0390153 0.008107 -44.452 -1.12323 12.5753 -94.1091 9.14303 -52.2336 -3.03044 -24.4988 -34.5297 5.66289 6.38008 -22.3872 -26.3168 9.86703 9.08439 39.4242 12.0338 -4.97717 38.7304 11.8651 -4.82267 -2.2335 10.2523 5.03865 52.3753 15.6205 -6.40196 44.0892 13.7161 -4.48631 15.0073 7.58698 -5.70559 37.2883 13.8496 -2.53196 38.5715 14.2637 -2.77359 23.054 4.37545 -8.90257 30.7535 11.5468 -0.514494 30.6849 11.5225 -0.506242 7.91155 0.880261 52.6243 -0.671208 1.5291 0.489019 -4.02432 8.62952 3.04557 -4.36394 -16.5107 46.1315 15.3276 47.4955 -8.25558 -14.5241 -2.96526 -22.8536 26.169 -3.43352 -8.59331 -23.0783 3.73182 -2.6182 0.441887 -0.0288534 0.641912 9.03081 -2.32494 -5.5704 5.72517 4.9572 -0.798547 
-37.9887 -3.6427 -50.0426 0 0 -0 -0.622176 6.90981 103.584 -0.101128 -2.30858 1.04454 -0.160285 -4.61863 2.08746 -0.160286 -4.61861 2.08747 -0.366529 14.3364 -9.09024 -6.68183 -0.830272 -9.28278 -0.621464 0.948134 -3.51896 6.86456 32.3114 28.06 -8.56423 -21.0732 -8.06862 -13.212 3.74611 40.0021 0.288658 -0.386819 0.0381441 -0.0066477 -0.148319 -0.0513415 0.347718 -0.21621 0.0193178 2.33024 -1.44977 0.256262 -0.189985 -1.00423 0.221411 2.33105 -1.45088 0.258658 2.42507 -6.35612 2.62493 -0.37852 -2.32402 0.782236 4.73396 -3.20717 0.756725 11.6219 -7.16893 2.50216 -0.0671445 -1.84373 1.58656 3.06206 -2.04034 0.539887 -0.278919 -0.42965 0.0841789 -0.104344 -0.138214 0.0289109 -0.114038 -0.15111 0.0312599 -44.432 -1.11609 12.5003 -94.9387 8.9404 -52.2757 -2.75131 -23.6072 -33.8014 6.04219 6.38635 -22.0039 -26.3168 9.86705 9.08441 39.4242 12.0338 -4.97718 38.7303 11.8651 -4.82268 -2.23349 10.2523 5.03865 52.3753 15.6205 -6.40197 44.0892 13.7161 -4.48629 15.0073 7.587 -5.70559 37.2883 13.8497 -2.53195 38.5715 14.2637 -2.7736 23.054 4.37545 -8.90256 30.7535 11.5468 -0.514486 30.6849 11.5225 -0.506242 7.91156 0.880285 52.6243 -0.671226 1.5291 0.489018 -4.02429 8.62951 3.04558 -4.72497 -16.2726 46.442 16.0768 48.2406 -8.86251 -14.3387 -2.62987 -22.7201 26.8277 -4.52142 -8.43178 -23.5169 4.17809 -3.31457 0.445238 0.132481 0.66758 9.1378 -2.29037 -5.81917 5.71773 4.89001 -0.796716 
-37.7481 -3.70179 -50.2262 0 0 -0 -0.531282 7.35135 104.557 -0.167642 -2.34494 0.977814 -0.29554 -4.69238 1.95122 -0.295543 -4.69238 1.95121 -0.26901 14.5367 -9.03403 -6.80515 -0.582548 -9.43797 -1.48205 1.00364 -3.06071 9.00092 32.5128 28.7469 -7.63256 -20.7865 -5.80972 -13.2241 5.06824 38.4978 0.627958 -0.840949 0.0836445 -0.0191155 -0.321337 -0.113353 0.756196 -0.469938 0.0436745 2.67757 -1.66429 0.297297 -0.21578 -1.15471 0.250144 2.67809 -1.66551 0.30217 2.75917 -6.43398 2.61163 -0.397733 -2.45463 0.818703 4.99689 -3.38228 0.806291 11.8646 -6.95411 2.38073 -0.0698502 -1.96937 1.68541 3.37062 -2.25092 0.623163 -0.608277 -0.93337 0.181762 -0.226413 -0.300431 0.0621497 -0.247627 -0.328599 0.0676208 -44.3975 -1.10419 12.3789 -95.8032 8.61979 -52.2778 -2.48326 -22.6811 -32.8357 6.44737 6.27964 -22.1238 -26.3168 9.86706 9.08441 39.4242 12.0338 -4.97713 38.7303 11.8651 -4.82268 -2.23351 10.2523 5.03865 52.3753 15.6205 -6.40193 44.0892 13.7161 -4.48628 15.0073 7.58699 -5.7056 37.2883 13.8497 -2.53195 38.5715 14.2637 -2.77359 23.054 4.37547 -8.90254 30.7535 11.5468 -0.514486 30.6849 11.5225 -0.506219 7.91154 0.880284 52.6243 -0.671198 1.52909 0.489029 -4.02431 8.62949 3.04558 -4.987 -16.0666 46.9819 17.0218 49.3028 -9.6672 -13.2583 -2.03361 -21.8278 27.858 -5.54478 -8.48834 -23.8988 4.89881 -4.14485 0.438308 -0.000140365 0.639897 9.3062 -2.10563 -5.88801 5.26224 4.39418 -0.668007 
-37.3937 -3.71429 -50.3472 0 0 -0 -0.33328 7.57748 105.194 -0.16395 -2.36389 1.03277 -0.285547 -4.73033 2.06144 -0.285545 -4.73033 2.06145 -0.215501 15.171 -9.4679 -6.97612 -0.929007 -9.49835 -1.96323 1.01587 -2.95057 10.9641 32.4878 28.8821 -6.6881 -20.6703 -4.83496 -13.0121 5.51801 38.8507 1.07823 -1.44242 0.145568 -0.035642 -0.549904 -0.197429 1.29757 -0.80581 0.0787271 3.13801 -1.94811 0.35395 -0.249913 -1.35441 0.286586 3.13825 -1.94942 0.36175 3.20219 -6.53695 2.59578 -0.423146 -2.62794 0.86599 5.34562 -3.61398 0.87315 12.1871 -6.67003 2.21918 -0.0729842 -2.13666 1.8153 3.78752 -2.52533 0.709084 -1.04688 -1.60004 0.306393 -0.38819 -0.515702 0.105719 -0.424363 -0.563898 0.115125 -44.3477 -1.08774 12.2141 -96.7902 8.52222 -52.1977 -2.30343 -21.8258 -31.7989 6.97949 6.28702 -22.2561 -26.3168 9.86704 9.0844 39.4242 12.0338 -4.9771 38.7303 11.8651 -4.82269 -2.23352 10.2523 5.03867 52.3753 15.6205 -6.4019 44.0892 13.7161 -4.48626 15.0073 7.58699 -5.70557 37.2883 13.8497 -2.53195 38.5715 14.2637 -2.77356 23.054 4.37546 -8.90253 30.7535 11.5467 -0.514464 30.6849 11.5225 -0.506232 7.91154 0.880277 52.6244 -0.671214 1.52909 0.489045 -4.02429 8.62949 3.0456 -4.84887 -16.097 47.9329 18.1446 50.7418 -10.5611 -11.1884 -0.947626 -19.3699 28.5876 -6.89639 -8.013 -24.0344 5.57987 -4.98806 0.451681 -3.01439e-005 0.742407 9.52524 -2.04786 -5.74971 5.20187 4.22122 -0.653471 
-36.9975 -3.70368 -50.4169 0 0 -0 -0.117618 7.86189 105.941 -0.199203 -2.3481 1.03234 -0.356444 -4.6994 2.05887 -0.356445 -4.6994 2.05885 -0.163078 15.5974 -9.67541 -6.96434 -0.971181 -9.51168 -2.85575 1.03548 -2.76174 13.8887 31.9793 29.077 -5.6523 -20.3382 -2.93971 -12.5363 5.7579 39.0168 1.6255 -2.17136 0.223077 -0.0562661 -0.825946 -0.302325 1.95436 -1.21262 0.125457 3.69683 -2.29163 0.426098 -0.29134 -1.59698 0.328224 3.69665 -2.29304 0.437104 3.7399 -6.66138 2.57936 -0.45385 -2.83857 0.921634 5.76882 -3.8943 0.956212 12.5791 -6.32638 2.02218 -0.0767606 -2.34067 1.97131 4.29371 -2.85724 0.815964 -1.5824 -2.40712 0.450853 -0.583965 -0.776645 0.157674 -0.638513 -0.849376 0.171755 -44.2812 -1.06664 12.0089 -97.3678 8.59895 -51.9648 -2.34606 -21.5871 -30.8891 7.42285 6.47865 -22.7796 -26.3168 9.86705 9.08442 39.4242 12.0339 -4.97701 38.7303 11.8651 -4.82266 -2.23352 10.2523 5.03865 52.3753 15.6206 -6.40182 44.0892 13.7161 -4.48624 15.0073 7.587 -5.70557 37.2883 13.8497 -2.53192 38.5715 14.2637 -2.77357 23.054 4.37549 -8.90249 30.7535 11.5468 -0.514456 30.6849 11.5225 -0.506182 7.91155 0.88031 52.6244 -0.671243 1.52907 0.489064 -4.02431 8.62948 3.04564 -4.56068 -16.4879 48.9136 19.5153 52.7586 -11.7722 -8.71042 0.19609 -15.4708 28.8287 -7.79677 -7.35654 -24.1538 6.33607 -5.54896 0.459972 7.35756e-005 0.814707 9.74929 -2.04772 -5.91707 5.42336 4.2533 -0.715032 
